<?xml version="1.0" encoding="utf-8"?>
<!-- Generator: Adobe Illustrator 26.5.0, SVG Export Plug-In . SVG Version: 6.00 Build 0)  -->
<svg version="1.1" id="Layer_1" xmlns="http://www.w3.org/2000/svg" xmlns:xlink="http://www.w3.org/1999/xlink" x="0px" y="0px"
	 viewBox="0 0 1079.99 967.43" style="enable-background:new 0 0 1079.99 967.43;" xml:space="preserve">
<polygon points="1079.99,0 1079.99,428.15 864.51,428.15 864.51,215.53 653.72,215.53 647.76,221.48 540,329.2 432.23,221.48 
	426.28,215.53 215.48,215.53 215.48,428.15 0,428.15 0,0 "/>
<path d="M861.85,751.9v215.53H218.17V751.9h214.07V614.22c0.14-1.5,0.19-3,0.19-4.5c0-1.45-0.05-2.95-0.19-4.41
	c-0.66-7.88-3.05-15.57-7.13-22.51l-32.92-55.9c-7.32-12.47-8.11-27.71-2.06-40.85l53.69-116.72c2.95,10.69,4.46,21.67,4.46,32.64
	c0,14.3-2.53,28.56-7.5,42.16l-12.71,34.51c-4.6,12.47-3.33,26.35,3.47,37.8l13.27,22.37l25.84,43.52l0.42-16.51v-0.75
	c0.23-14.3-3.8-28.32-11.54-40.42l-4.88-7.5c-9.52-14.82-11.44-33.3-5.11-49.71l42.06,46.89c14.44,16.13,23.35,36.44,25.46,57.96
	l4.22,43l18.71,18.71l18.71-18.71l4.17-42.96c2.11-21.52,11.02-41.83,25.46-57.96l42.06-46.89c6.33,16.41,4.45,34.89-5.11,49.66
	l-4.83,7.55c-7.79,12.05-11.82,26.12-11.58,40.42v0.75l0.42,16.51l25.89-43.57l13.27-22.32c6.8-11.44,8.07-25.32,3.47-37.8
	l-12.71-34.51c-5.02-13.55-7.55-27.86-7.55-42.11c0-10.97,1.5-21.99,4.5-32.69l53.65,116.72c6.05,13.13,5.3,28.37-2.06,40.85
	l-32.87,55.9c-4.03,6.8-6.42,14.35-7.13,22.13c-0.14,1.64-0.23,3.24-0.23,4.88c0,1.59,0.05,3.19,0.23,4.83V751.9H861.85z"/>
<path d="M498.64,437.66c0,36.99,15.96,70.25,41.36,93.28c25.4-23.03,41.36-56.29,41.36-93.28c0-36.99-15.96-70.25-41.36-93.28
	C514.59,367.41,498.64,400.67,498.64,437.66z"/>
</svg>
